<!-- File: public/google-icon.svg -->
<svg xmlns="http://www.w3.org/2000/svg" viewBox="0 0 533.5 544.3">
  <path fill="#4285F4" d="M533.5 278.4c0-17.4-1.4-34.1-4.1-50.3H272v95.3h146.9c-6.4 34-25.2 62.7-53.7 82v67h86.7c50.7-46.7 81.6-115.7 81.6-194z"/>
  <path fill="#34A853" d="M272 544.3c72.6 0 133.5-24 178-65.3l-86.7-67c-24.1 16.2-54.8 25.6-91.3 25.6-70 0-129.3-47.2-150.5-110.7H31.8v69.6c44.5 88.3 136.5 148.8 240.2 148.8z"/>
  <path fill="#FBBC04" d="M121.5 326.9c-10.4-30.8-10.4-64 0-94.8v-69.6H31.8c-30.6 61.2-30.6 133.2 0 194.4l89.7-30z"/>
  <path fill="#EA4335" d="M272 107.7c39.4-.6 76.9 13.4 105.9 38.2l79.1-79.1C417.2 25.7 347.6 0 272 0 168.3 0 76.3 60.5 31.8 148.8l89.7 69.6C142.7 154.9 202 107.7 272 107.7z"/>
</svg>
